<svg xmlns="http://www.w3.org/2000/svg" viewBox="0 0 741.57 759.87"><title>Brainstorm</title><g id="Layer_2" data-name="Layer 2"><g id="About_Section_Images" data-name="About Section Images"><g id="Brainstorm"><g id="Brainstorm-2" data-name="Brainstorm"><g id="Idea_LAmp" data-name="Idea LAmp"><path class="cls-4" d="M579.78,352.86a183.89,183.89,0,0,1-25.52,86.61c-28.28,47.77-86.57,77.47-86.57,112.45v1.41a16.86,16.86,0,0,1-16.87,16.86H339.31a16.86,16.86,0,0,1-16.86-16.86v-.4c0-35.41-58.37-65.5-86.86-114a184,184,0,0,1-25.37-93.51c0-97.68,75.76-177.66,171.73-184.39C491.4,153.38,584.1,243.22,579.78,352.86Z"/><path class="cls-2" d="M322.79,566.31H467.36a0,0,0,0,1,0,0v60.56a51.54,51.54,0,0,1-51.54,51.54H374.33a51.54,51.54,0,0,1-51.54-51.54V566.31A0,0,0,0,1,322.79,566.31Z"/></g></g><g id="Speaker"><g id="Type_2" data-name="Type 2"><path id="Type_2-2" data-name="Type 2" class="cls-2" d="M162.32,493.72q-12.8-42.93-25.6-85.84c-5.67-20.53-24.65-37.86-46.8-33.3a217.33,217.33,0,0,1-41.82,4.09C25,377.44,10.92,400.07,8.64,420.42Q4.41,465,.17,509.59c-2.69,31.14,27.24,32.13,50.22,28a323,323,0,0,1,68.09-6.66C140.28,530.54,172.81,523.57,162.32,493.72ZM101.14,466.6a23,23,0,0,1-13.59,23.3A17.83,17.83,0,0,1,84,491.2L85.07,502a3.58,3.58,0,1,1-7.13.7l-1.06-10.78a17.42,17.42,0,0,1-3.69-.58,23,23,0,0,1-17.88-20.23l-.83-8.52a4.92,4.92,0,0,1,3.58-5.23l-1.8-18.39a18.1,18.1,0,0,1,16.25-19.78L74.2,419A18.1,18.1,0,0,1,94,435.25l1.8,18.39a4.93,4.93,0,0,1,4.53,4.43Z"/></g><circle class="cls-2" cx="64.59" cy="329.52" r="46.89"/></g><g id="Speaker-2" data-name="Speaker"><g id="Type_2-3" data-name="Type 2"><path id="Type_2-4" data-name="Type 2" class="cls-2" d="M665.92,152.17q-.57-29.47-1.16-58.94c0-14-9-28.34-23.84-29.34a143.07,143.07,0,0,1-27.24-4.74c-14.45-4.85-27.34,7-32.36,19.55l-21,55.07c-7.17,19.28,11.64,25.16,26.94,26.55a212,212,0,0,1,44.36,7.73C645.48,171.66,667.34,173,665.92,152.17Zm-34-27.95a15.16,15.16,0,0,1-12.71,12.4,11.94,11.94,0,0,1-2.47.2l-1.22,7a2.36,2.36,0,0,1-4.65-.81l1.23-7a11.16,11.16,0,0,1-2.25-1A15.16,15.16,0,0,1,602,119l1-5.55a3.23,3.23,0,0,1,3.19-2.68l2.08-12a11.91,11.91,0,0,1,13.78-9.7l1.1.19a11.92,11.92,0,0,1,9.69,13.79l-2.09,12a3.24,3.24,0,0,1,2.1,3.6Z"/></g><circle class="cls-2" cx="632.77" cy="30.87" r="30.86"/></g><g id="Speaker-3" data-name="Speaker"><g id="Type_2-5" data-name="Type 2"><path id="Type_2-6" data-name="Type 2" class="cls-2" d="M741.4,727q-1.74-53.06-3.49-106.1c-.32-25.24-16.87-50.81-43.63-52.26a257.57,257.57,0,0,1-49.16-7.9c-26.12-8.37-49,13.34-57.8,36q-18.27,49.83-36.55,99.67c-12.46,34.88,21.55,45,49.14,47.17A382.29,382.29,0,0,1,680,756.43C705.06,762.6,744.45,764.4,741.4,727Zm-62-49.51a27.28,27.28,0,0,1-22.59,22.62,20.45,20.45,0,0,1-4.44.42l-2,12.67a4.24,4.24,0,1,1-8.38-1.34l2-12.67a21.72,21.72,0,0,1-4.06-1.78,27.31,27.31,0,0,1-14.4-28.57l1.61-10a5.83,5.83,0,0,1,5.68-4.91l3.47-21.62a21.46,21.46,0,0,1,24.59-17.79l2,.32a21.45,21.45,0,0,1,17.77,24.59l-3.47,21.62a5.83,5.83,0,0,1,3.85,6.44Z"/></g><circle class="cls-2" cx="678.82" cy="509.39" r="55.57"/></g></g></g></g></svg>