<svg id="Layer_1" data-name="Layer 1" xmlns="http://www.w3.org/2000/svg" xmlns:xlink="http://www.w3.org/1999/xlink" viewBox="0 0 2000 2000"><defs><style>.cls-1{fill:none;}.cls-2{fill:url(#New_Pattern);}</style><pattern id="New_Pattern" data-name="New Pattern" width="1373.91" height="880.12" patternUnits="userSpaceOnUse" viewBox="0 0 1373.91 880.13"><rect class="cls-1" width="1373.91" height="880.12"/><circle cx="1051.08" cy="1007.42" r="133.41"/><circle cx="1506.37" cy="1043.42" r="288"/><circle cx="1079.66" cy="680.24" r="162"/><circle cx="132.46" cy="1043.42" r="288"/><circle cx="562.34" cy="950.24" r="108"/><circle cx="1051.08" cy="127.29" r="133.41"/><circle cx="1506.37" cy="163.29" r="288"/><circle cx="1166.49" cy="367.64" r="51.88"/><circle cx="364.12" cy="567.35" r="133.41"/><circle cx="819.41" cy="603.35" r="288"/><circle cx="479.53" cy="807.71" r="51.88"/><circle cx="392.71" cy="240.18" r="162"/><circle cx="1162.47" cy="683.82" r="40.24"/><circle cx="1249.3" cy="510.18" r="108"/><circle cx="132.46" cy="163.29" r="288"/><circle cx="475.51" cy="243.76" r="40.24"/><circle cx="562.34" cy="70.11" r="108"/><circle cx="819.41" cy="-276.77" r="288"/></pattern></defs><title>Circle-Pattern</title><rect class="cls-2" width="2000" height="2000"/></svg>