<svg xmlns="http://www.w3.org/2000/svg" viewBox="0 0 822.65 735.64"><title>Conference</title><g id="Layer_2" data-name="Layer 2"><g id="About_Section_Images" data-name="About Section Images"><g id="Conference"><g id="Speaker"><g id="Type_2" data-name="Type 2"><path id="Type_2-2" data-name="Type 2" class="cls-2" d="M520.52,295q-11.47-59-23-118c-4.89-28.17-28-53.79-58.16-50.6a291.88,291.88,0,0,1-56.39,0c-30.71-4.67-52.45,23.72-58.16,50.6q-11.47,59-23,118c-7.66,41.24,32.19,46.47,63.42,43.91a433.57,433.57,0,0,1,91.82,0C486.27,341.33,530.64,336.27,520.52,295ZM442.35,250.8a30.91,30.91,0,0,1-21.2,29.35,23.42,23.42,0,0,1-4.89,1.27V296a4.81,4.81,0,1,1-9.61,0V281.42a23.93,23.93,0,0,1-4.86-1.26,30.92,30.92,0,0,1-21.23-29.36V239.31A6.6,6.6,0,0,1,386,232.8V208a24.29,24.29,0,0,1,24.29-24.3h2.27A24.29,24.29,0,0,1,436.88,208v24.8a6.61,6.61,0,0,1,5.47,6.51Z"/></g><circle class="cls-2" cx="411.45" cy="62.93" r="62.93"/></g><g id="Basic_User" data-name="Basic User"><path class="cls-2" d="M457.11,735.09a434.9,434.9,0,0,0-91.82,0c-31.23,2.57-71.08-2.66-63.42-43.91q11.49-59,23-118c5.71-26.88,27.45-55.28,58.16-50.6a292.68,292.68,0,0,0,56.39,0c30.18-3.19,53.27,22.43,58.16,50.6q11.49,59,23,118C530.64,732.42,486.27,737.49,457.11,735.09Z"/><circle class="cls-2" cx="411.19" cy="459.09" r="62.93"/></g><g id="Basic_User-2" data-name="Basic User"><path class="cls-2" d="M156.19,678.41a434.9,434.9,0,0,0-91.82,0C33.14,681-6.7,675.75,1,634.5q11.49-59,23-118c5.7-26.88,27.45-55.27,58.16-50.59a293.48,293.48,0,0,0,56.39,0c30.18-3.2,53.27,22.42,58.16,50.59q11.48,59,23,118C229.72,675.74,185.36,680.8,156.19,678.41Z"/><circle class="cls-2" cx="110.28" cy="402.41" r="62.93"/></g><g id="Basic_User-3" data-name="Basic User"><path class="cls-2" d="M757.76,678.41a434.9,434.9,0,0,0-91.82,0c-31.23,2.56-71.07-2.66-63.41-43.91q11.47-59,23-118c5.7-26.88,27.45-55.27,58.16-50.59a293.48,293.48,0,0,0,56.39,0c30.18-3.2,53.27,22.42,58.16,50.59q11.47,59,23,118C831.29,675.74,786.93,680.8,757.76,678.41Z"/><circle class="cls-2" cx="711.85" cy="402.41" r="62.93"/></g></g></g></g></svg>