<svg xmlns="http://www.w3.org/2000/svg" viewBox="0 0 401.01 421.25"><title>Icon-Small</title><g id="Layer_2" data-name="Layer 2"><g id="Layer_1-2" data-name="Layer 1"><path class="cls-1" d="M317.88,229.61,205.67,82.5a19.55,19.55,0,0,1,3.69-27.41L226,42.42a19.56,19.56,0,0,1,27.42,3.69L365.6,193.21a19.57,19.57,0,0,1-3.69,27.42L345.3,233.3A19.57,19.57,0,0,1,317.88,229.61Z"/><path class="cls-1" d="M365.54,131.09,288.61,30.23a13.4,13.4,0,0,1,2.53-18.79l11.39-8.69a13.42,13.42,0,0,1,18.8,2.53l76.93,100.86a13.4,13.4,0,0,1-2.53,18.79l-11.39,8.69A13.42,13.42,0,0,1,365.54,131.09Z"/><path class="cls-2" d="M0,394.1V145.8a27.16,27.16,0,0,1,27.15-27.15H85V394.1a27.15,27.15,0,0,1-27.15,27.15H27.15A27.15,27.15,0,0,1,0,394.1Z"/><path class="cls-2" d="M68.85,315V253.8h54.82a40.74,40.74,0,0,0,18.07-4,32,32,0,0,0,13.39-12.33q5.09-8.28,5.09-20.61t-5.09-20.61a32.11,32.11,0,0,0-13.39-12.33,40.75,40.75,0,0,0-18.07-4H68.85v-61.2h71.4q29.33,0,52.91,11.69a91.27,91.27,0,0,1,37.4,33.58q13.81,21.89,13.82,52.91,0,30.6-13.82,52.7a90.73,90.73,0,0,1-37.4,33.79Q169.58,315,140.25,315Z"/></g></g></svg>