<svg xmlns="http://www.w3.org/2000/svg" viewBox="0 0 1276.82 384.51"><title>Icon-Full</title><g id="Layer_2" data-name="Layer 2"><g id="Layer_1-2" data-name="Layer 1"><path class="cls-1" d="M1161.44,318.69,1005.69,114.51a27.14,27.14,0,0,1,5.13-38.05l23-17.59A27.16,27.16,0,0,1,1071.93,64l155.74,204.18a27.16,27.16,0,0,1-5.12,38.06l-23.06,17.59A27.14,27.14,0,0,1,1161.44,318.69Z"/><path class="cls-1" d="M1227.59,182,1120.81,42a18.62,18.62,0,0,1,3.51-26.09l15.81-12a18.6,18.6,0,0,1,26.09,3.51l106.78,140a18.61,18.61,0,0,1-3.51,26.09l-15.81,12.06A18.62,18.62,0,0,1,1227.59,182Z"/><path class="cls-2" d="M0,356.51V108.21A27.16,27.16,0,0,1,27.15,81.06H85V356.51a27.15,27.15,0,0,1-27.15,27.15H27.15A27.15,27.15,0,0,1,0,356.51Z"/><path class="cls-2" d="M68.85,277.41v-61.2h54.82a40.61,40.61,0,0,0,18.07-4,32,32,0,0,0,13.39-12.32q5.09-8.29,5.09-20.61t-5.09-20.62a32.15,32.15,0,0,0-13.39-12.32,40.75,40.75,0,0,0-18.07-4H68.85V81.06h71.4q29.33,0,52.91,11.69a91.32,91.32,0,0,1,37.4,33.57q13.81,21.9,13.82,52.92,0,30.6-13.82,52.7a90.71,90.71,0,0,1-37.4,33.78q-23.58,11.7-52.91,11.69Z"/><path class="cls-2" d="M371.45,384.51q-30.6,0-54.19-11.9a92.71,92.71,0,0,1-37.19-33.15q-13.6-21.24-13.6-48.45V197.46a27.16,27.16,0,0,1,27.15-27.15h29a27.15,27.15,0,0,1,27.15,27.15v94.4a23.74,23.74,0,0,0,2.76,11.48,19.44,19.44,0,0,0,7.65,7.86A22.44,22.44,0,0,0,371.45,314a20.5,20.5,0,0,0,15.08-6.16q6.17-6.15,6.17-15.94v-94.4a27.15,27.15,0,0,1,27.15-27.15h29A27.16,27.16,0,0,1,476,197.46V291q0,27.63-13.39,48.66t-37,32.94Q402.05,384.51,371.45,384.51Z"/><path class="cls-2" d="M510.42,356.51V99.71a27.15,27.15,0,0,1,27.15-27.15h29a27.16,27.16,0,0,1,27.15,27.15v256.8a27.15,27.15,0,0,1-27.15,27.15h-29A27.14,27.14,0,0,1,510.42,356.51Z"/><path class="cls-2" d="M717,383.66a154.35,154.35,0,0,1-39.1-5.1,166.73,166.73,0,0,1-36.33-14l-.34-.18A26.83,26.83,0,0,1,634.75,322l5.81-6a27.28,27.28,0,0,1,32.83-4.71,84,84,0,0,0,8.09,3.9,76.83,76.83,0,0,0,30,5.95q7.21,0,11.26-1.92t4-5.31q0-5.94-7-8.92a113.4,113.4,0,0,0-17.85-5.53q-10.85-2.55-23-6.59a104.45,104.45,0,0,1-23.17-11.05,51.78,51.78,0,0,1-17.85-19.55q-6.79-12.52-6.8-32.08a58.87,58.87,0,0,1,11.27-35.49q11.25-15.51,31.87-24.65T722.06,161a156.72,156.72,0,0,1,53.55,9.35,110.75,110.75,0,0,1,13.7,6,27.17,27.17,0,0,1,6.88,43.12l-6.58,6.71A27.34,27.34,0,0,1,757,230.77a46.23,46.23,0,0,0-7.77-3.3q-12.75-4-21.25-4-8.07,0-11.26,2.33a7,7,0,0,0-3.19,5.74q0,4.68,6.8,7.65A104.48,104.48,0,0,0,738,244.69a213.53,213.53,0,0,1,22.74,6.8,94.43,94.43,0,0,1,22.74,11.9,58.24,58.24,0,0,1,17.63,20.18q6.79,12.54,6.8,32.52,0,31-24.65,49.3T717,383.66Z"/><path class="cls-2" d="M948.58,384q-36.55,0-64.17-13.81T841.27,331.5q-15.53-24.86-15.51-57.16,0-31.87,15.09-56.52a107.35,107.35,0,0,1,41.43-38.89q26.36-14.24,59.5-14.24,32.73,0,57.8,13.39a99.41,99.41,0,0,1,39.32,37.19q14.24,23.8,14.23,54.4,0,6.38-.63,13.38c-.07.76-.15,1.53-.25,2.33a16,16,0,0,1-15.81,14.13L861,300.69v-51l157.68-1.27L980,270.94q0-17-4-27.84t-12.12-16.36q-8.07-5.52-20.4-5.52-12.75,0-22.1,6.37t-14.23,18.28q-4.89,11.89-4.89,28.9,0,17.43,5.31,29.11a37.91,37.91,0,0,0,15.51,17.64q10.2,6,25.5,6,14.88,0,26.14-4.89a53.21,53.21,0,0,0,10.78-6.32,15.9,15.9,0,0,1,20.7,1.57l19.1,18.89a16,16,0,0,1-1.18,23.84,100.09,100.09,0,0,1-25,14.51Q977.05,384,948.58,384Z"/></g></g></svg>