<svg xmlns="http://www.w3.org/2000/svg" xmlns:xlink="http://www.w3.org/1999/xlink" viewBox="0 0 1793.42 1649.42"><defs><style>.sphereAdd{fill:none;}.sphereAdd2{clip-path:url(#clip-path);}</style><clipPath id="clip-path"><circle class="sphereAdd" cx="884.02" cy="825.28" r="372.71"/></clipPath></defs><title>Sphere</title><g id="Layer_2" data-name="Layer 2"><g id="About_Section_Images" data-name="About Section Images"><g class="sphereAdd2"><path class="cls-2" d="M1617,235.91c-45.93-2.23-90.74-16.62-134.28-30.55-59.24-18.94-117.64-40.5-176.14-61.6-51.6-18.61-103.21-37.34-155.55-53.8-36.62-11.52-74.59-24-113-27.4C997.38,58.93,955.79,60.9,915,58.7c-38.86-2.1-77.69-4.73-116.58-6.24C716.94,49.28,635.21,52,553.71,54,369.08,58.7,184.66,58.15,0,59.55V1.15H908.88c41.62,0,84.64-3,126.1.71,38.44,3.45,76.41,15.88,113,27.4,52.34,16.46,104,35.19,155.56,53.8,58.5,21.1,116.89,42.66,176.14,61.61,43.53,13.92,88.35,28.31,134.28,30.54C1614,195.5,1615.23,215.7,1617,235.91Z"/><path class="cls-2" d="M1628.48,319.2C1583,317,1538.54,302.8,1495.37,289c-58.79-18.76-116.74-40.12-174.78-61.07-85.63-30.9-177.17-72.56-268.65-81.86-41.2-4.19-82.43-3.33-123.69-9-36.88-5-73.59-11.22-110.66-14.77-81.85-7.84-165.13-1.87-247.06,2.2-89.07,4.43-178.18,10.22-267.4,10.57-101,.39-202.06-2.2-303.13-1.07V75.66C185.73,74,371.07,74.83,556.75,69c81.69-2.56,163.78-6,245.46-1.83,38.51,2,76.93,5.35,115.39,8.06,40.57,2.86,81.76,1.2,122.16,4.81,38.43,3.43,76.41,15.88,113,27.4,52.34,16.46,104,35.19,155.56,53.8,58.5,21.1,116.89,42.66,176.14,61.6,43.53,13.93,88.35,28.32,134.28,30.55C1621.41,275.45,1624.69,297.33,1628.48,319.2Z"/><path class="cls-2" d="M1647.12,407.6c-48.17-2.3-95.49-18-141-32.76-54.39-17.63-108.12-37.27-161.9-56.69-87.48-31.58-180.72-73.88-274.12-83.63-40.62-4.23-79.47-4.78-119.64-14.1-36.25-8.42-72-18.67-108.87-24.42-83.28-13-170.57-3.62-254.17,2-91,6.16-182.19,14.49-273.48,14.4-104.65-.1-209.2-4.89-313.9-3.86v-58.4c101.1-1.15,202.13,1.76,303.22,1.56,90.86-.18,181.61-6.69,272.31-11.59,81.59-4.4,164.94-11,246.42-2.2,37.89,4.1,75.3,11.38,112.94,17.2,39.31,6.08,78.22,5.89,117.61,9.47,40.64,3.69,81,17,119.67,29.32,51.91,16.57,103.15,35.16,154.4,53.66,57.58,20.78,115.09,42,173.44,60.53,42.8,13.62,86.83,27.64,132,29.81Q1638.88,372.92,1647.12,407.6Z"/><path class="cls-2" d="M1671.18,499.57c-47.35-2.24-93.85-17.53-138.64-32-57.22-18.47-113.68-39.2-170.22-59.61-50.14-18.1-100.3-36.29-151.1-52.49-38.1-12.15-77.87-25.29-117.89-29.16-40.55-3.92-77-6.05-116.07-19.27C941.51,295,906.72,280.28,869.72,272.2c-83.06-18.13-173.87-5.82-257.69.9-96.52,7.74-193.55,19.07-290.52,17.64C214.28,289.15,107.32,282.54,0,283.1V224.7c105.49-1,210.79,4.34,316.23,4.61,92.06.24,184-8.63,275.78-15.13,83.89-5.94,172.13-16.05,255.62-1.83,36.64,6.24,72.07,17.35,108,26.51,40.07,10.2,78.53,11.06,119.21,15.3,93.41,9.75,186.64,52,274.12,83.63,53.78,19.42,107.51,39.06,161.91,56.69,45.54,14.77,92.86,30.46,141,32.76Q1661.09,463.54,1671.18,499.57Z"/><path class="cls-2" d="M1699,593.55c-46.21-2.14-91.42-16.9-135.19-30.87-56-17.88-111.2-38.16-166.47-58.12-52.53-19-105.06-38.07-158.27-55.06-39.18-12.5-80.14-26.19-121.41-29.52-40.24-3.24-74.39-7.91-111.56-24.87-33.81-15.43-66.07-33.87-101.93-44.37-84.8-24.81-183-9-269.42-1.2-98.56,8.89-197.85,22.1-297,20.15-112.66-2.21-224.91-12-337.73-12.08v-58.4c109.16-.43,217.93,7.21,327,8.58,97.28,1.22,194.53-10.39,291.34-18.35,83.57-6.88,174.86-19.69,257.56-.64,36.69,8.45,70.94,23.86,106.16,36.75,38.32,14,74,17.56,114.25,20.8,39,3.14,77.64,15.85,114.79,27.5,53.66,16.84,106.54,36.12,159.42,55.21,56.11,20.26,112.16,40.85,169,59.11,44.46,14.29,90.48,29.4,137.47,31.6Q1687.65,556.76,1699,593.55Z"/><path class="cls-2" d="M1727.57,687.84c-45.5-2.08-89.85-16.45-133-30.16-58.71-18.66-116.55-40-174.48-60.92-85.82-31-177.63-72.73-269.32-82-43.86-4.46-78.55-9.63-117.2-32.56-32.11-19.05-62.27-41-97.77-53.55-84.18-29.86-187.27-11.36-273.88-2.84C557.64,436,451.77,452.53,346.71,448.58,231,444.22,116,432.94,0,432.13v-58.4c113.77.26,226.9,10.56,340.49,13.06,100,2.21,200.26-11.54,299.67-20.69,86.68-8,186.33-24.49,271.23,1.62,35.84,11,67.73,30.31,101.27,46.55,37,17.9,70.88,22.88,111.3,26.15,41.28,3.34,82.22,17,121.41,29.52,53.22,17,105.74,36.08,158.27,55.05,55.27,20,110.49,40.25,166.48,58.12,43.76,14,89,28.73,135.19,30.87Q1716.68,650.83,1727.57,687.84Z"/><path class="cls-2" d="M1753,780.63c-46.82,0-95.18-17.92-139.16-32.12-54.22-17.51-107.76-37.11-161.35-56.45-53.88-19.46-107.75-39.11-162.37-56.41-37.94-12-77.44-25-117.33-28.49-43.8-3.82-76.31-11.78-112.26-38.33-30-22.16-57.57-47.29-92.18-62.31-41.06-17.82-85.85-18.43-129.86-17.19C786.63,490.8,734.88,496,683.3,501.61c-106.07,11.45-214.14,29.9-321.12,25.67C241.26,522.5,121.23,508,0,506.64v-58.4c117.79,1,234.62,13.46,352.15,17.46,105.45,3.58,211.55-13.13,316.21-23.6,86.26-8.63,190-27.56,273.73,3,36.52,13.35,66.91,37,99.69,57.21,36.65,22.57,70,28.72,112.1,32.4,40.6,3.54,80.83,16.91,119.44,29.22,52.11,16.61,103.54,35.31,155,53.87C1482.66,637.48,1537,657.4,1592,675.23c45.71,14.82,93.1,30.66,141.44,32.86Q1743.63,744.26,1753,780.63Z"/><path class="cls-2" d="M1773.61,870.36c-46.25-.54-93.46-17.42-137-31.41-56.86-18.29-113-38.91-169.13-59.18-86-31-177.82-72.63-269.66-82.42-23.5-2.51-45.69-2-67.8-12-17.11-7.68-32-19.3-45.84-31.74-29-26-54.77-55.36-90.26-72.87-40.3-19.89-85.57-20.52-129.58-19.15-52.83,1.64-105.5,7.54-158,13.73-111,13.1-225.3,35.58-337.44,29.46-123.24-6.72-245.32-22-369-23.64v-58.4c122.05,1.48,242.82,16.39,364.54,21.41,107.74,4.44,216.68-14.63,323.46-26.38,52-5.72,104.09-11.12,156.36-12.62,44.15-1.27,89.18-.63,130.18,17.78,34.61,15.55,61.71,41.45,91.37,64.35,35.57,27.45,67.8,35.73,111.83,39.58,39.88,3.49,79.38,16.47,117.32,28.48,54.63,17.3,108.49,37,162.38,56.41,53.58,19.35,107.12,39,161.34,56.46,44,14.19,92.34,32.12,139.17,32.12Q1766.36,835.23,1773.61,870.36Z"/><path class="cls-2" d="M1787.63,955.47c-45.88-.52-92.7-17.2-135.87-31.06-56.48-18.12-112.18-38.58-168-58.71-52.81-19.05-105.61-38.29-159.14-55.26-37.36-11.84-76.24-24.55-115.48-28.2-44.79-4.17-74.76-13-106.3-46.73-27.77-29.72-51.31-63.7-87.65-83.89-39.48-21.93-85.38-22.41-129.33-20.76-53.89,2-107.6,8.8-161,15.83-113.14,14.9-230.14,40.3-344.74,34.6-63.15-3.15-126.25-12.24-189.34-16.95C127.28,659.6,63.69,656.4,0,655.68v-58.4c124.35,1.64,247.05,17.27,371,24.16,112.79,6.28,227.92-16.93,339.49-30.4,52.78-6.37,105.78-12.45,158.95-14.16,44.09-1.43,89.56-.8,129.75,19.63,35.45,18,60.77,48.11,89.29,74.84,13.62,12.75,28.31,24.69,45.35,32.6,22,10.22,44.2,9.74,67.72,12.25,91.84,9.79,183.62,51.38,269.65,82.42,56.18,20.27,112.28,40.9,169.14,59.18,43.5,14,90.71,30.87,137,31.41Q1783.24,922.24,1787.63,955.47Z"/><path class="cls-2" d="M1793.4,1034.43c-45.52-.52-92-17-134.81-30.72-56.08-18-111.4-38.26-166.79-58.25-52.64-19-105.26-38.18-158.59-55.18-39.12-12.47-79.92-26-121.09-29.41-44.85-3.71-72.44-15.17-100.54-51.62-24.22-31.42-43.95-66.91-77.89-89.26-39.07-25.73-86.62-26.1-131.71-23.86C845.35,699,789,707.2,733,715.6c-113.76,17.07-232.82,46.22-348.48,40.21-61.94-3.22-123.83-12.32-185.73-17-66.15-5-132.41-8.3-198.76-8.6v-58.4c63.92.66,127.75,3.87,191.49,8.65,63.37,4.75,126.74,14,190.16,17.14C496.78,703.3,614.46,677.09,728,661.75c53.68-7.25,107.65-14.26,161.81-16.4,44-1.74,90-1.31,129.31,21.09,36.29,20.68,59.2,55.38,86.46,85.76,31,34.54,60.63,43.51,105.57,47.69,39.24,3.65,78.12,16.36,115.48,28.2,53.53,17,106.32,36.21,159.13,55.26,55.78,20.13,111.49,40.59,168,58.71,43.17,13.86,90,30.54,135.87,31.06C1791.59,993.52,1793.15,1013.94,1793.4,1034.43Z"/><path class="cls-2" d="M1791.28,1109c-97.87-7.67-194.85-48.86-287-80.2-86.22-29.34-176.71-67.41-267.92-77.6-24.19-2.7-46.42-2.62-68.3-14.86-16.16-9-29.61-22.12-41.94-35.75-28-30.94-51.3-66.61-87.23-89.27-38.63-24.37-84.54-26.78-129-26.38-54.92.49-109.79,6.37-164.29,12.69C632.54,810.74,517.4,834,403.13,831.54c-62-1.31-124-7.28-186-9.19-64.9-2-129.83-2.66-194.77-2.7-9.92-23.41-19.62-47.52-22-73.1,66.36.21,132.64,3.14,198.83,7.8,61.86,4.35,123.73,13.11,185.63,16,115.64,5.5,234.35-23.26,348.16-40.1,56-8.29,112.38-16.39,169-19,45.07-2.09,92.52-1.49,131.46,24.38,34,22.58,53.82,58.28,78.19,89.82,11.42,14.77,24,28.84,40.28,38.41,19.43,11.46,39,11.56,60.73,13.48C1253.92,881,1294.78,894.49,1334,907c53.12,16.9,105.55,35.93,158,54.79,55.18,19.84,110.3,40,166.17,57.83,43.1,13.77,89.49,30,135.22,31C1793.25,1070.07,1792.5,1089.55,1791.28,1109Z"/><path class="cls-2" d="M1785.15,1183.51c-170.34-9.35-326.24-103.5-496-116.54-46-3.52-78.11-15.41-112.39-47.15-31.85-29.49-59.13-64.14-96.43-87.26-38.64-23.94-83.45-28.78-128-30.46-54-2-108.23,1.16-162.1,5.19-109.65,8.2-219.2,24-329.25,25.41-125.15,1.64-250.65,3.12-375.83,3.45-18.21-30.52-35.84-61.28-51.81-93,65.2,0,130.41,0,195.6,1.37,61.87,1.26,123.76,6.62,185.59,7.23,112.69,1.12,225.65-20,337.41-32,54.68-5.88,109.72-11.2,164.77-11.16,44.74,0,90.58,3,129.35,27.66,35.08,22.27,59,56.35,86.77,86.38,13.66,14.75,28.5,28.73,46.43,38.14,21,11,41.78,11.25,64.73,13.63,89.36,9.26,178.12,45.46,262.73,73.55,91.22,30.28,186.81,69.69,283.45,77.18C1788.8,1144.6,1787.07,1164.06,1785.15,1183.51Z"/><path class="cls-2" d="M1777.56,1258c-141.39,0-276-61-417-65.1-47.54-1.39-82.89-15.05-120.29-44.67-34.69-27.47-65.33-60.25-103.18-83.61-80.61-49.74-193.94-40.64-284.62-37.93-106.75,3.18-213.19,12.58-319.88,17.11-123.07,5.24-246.4,18-369.57,18.86-20.33-33.23-41-66.24-61.39-99.43,124.33-.43,249-4.38,373.33-6.76,110.79-2.12,221-16.76,331.5-23.85,52.42-3.37,105.15-5.82,157.66-3.3,43.35,2.07,87.26,7.08,125.22,29.7,38.45,22.93,67.08,57.89,100,87.52,35.23,31.72,68.27,44.43,115.11,47.48,163.63,10.68,315,98.26,479.13,105.58C1781.57,1219.09,1779.51,1238.55,1777.56,1258Z"/><path class="cls-2" d="M1771,1332.54c-117.53,4.83-233.7-23.32-351.19-20.79-99.36,2.15-161.82-78.68-241.06-125.21s-183.69-45.85-272.88-47.5c-104.54-1.94-209.94,1.46-314.24,8.78C471,1156.29,351.14,1180.64,230,1182c-15.33-31.62-32.82-62.08-50.71-92.3,121.77-.9,243.4-16.28,365-22,106.44-5,212.83-13.25,319.39-15.44,89.94-1.84,200.86-9.21,281.32,38.33,78.54,46.41,128.85,127.71,227.85,129.22,136,2.07,266.86,56,403.07,54.38C1774.08,1293.58,1772.36,1313.05,1771,1332.54Z"/><path class="cls-2" d="M1768.06,1407.06c-107.3.53-214.63.18-321.94-.12-100.1-.27-172.11-71.9-253.73-119.61-81.32-47.52-182.84-54.53-274.92-60.63-99.08-6.57-201.21-9.27-300.18.5C497.71,1239,381,1274.88,260.38,1276.78c-1.3-25-10.46-48.72-19.8-71.63,119.75-1.45,237.81-27.64,357-37.2,104-8.34,209.83-10.23,314.12-7.26,90,2.57,194.17,3.5,274,50.43,78.32,46,143.63,125.94,241.56,123.86,114.49-2.43,228.29,18.46,342.76,13.67C1768.85,1368.1,1768.12,1387.58,1768.06,1407.06Z"/><path class="cls-2" d="M1750.86,1469.11q-159.45,0-318.92,0c-97.56-.14-173.59-58.56-258-99-83.7-40.11-182.08-46.89-273.45-53-97.66-6.53-197.55-9.73-295.27-2.68-115.35,8.32-228.67,36.78-344.7,37V1293c120.25-1.43,236.62-36.55,355.86-47.64,98.72-9.18,200.46-6,299.21.89,92.05,6.44,192.85,13.9,274.69,60.17,82.44,46.62,155.63,115.73,255.49,116.39,107.24.71,214.52,0,321.76,0C1764.86,1439.74,1760.4,1454.58,1750.86,1469.11Z"/><path class="cls-2" d="M1706.56,1511.48h-192c-55.9,0-114.35,4.8-169.87-2-57.07-7-110-31.12-162.68-52.84-50-20.64-98.94-35.7-152.6-43.4-120.87-17.35-244.2-19.59-366.13-17.93-135,1.83-267.89,30-402.76,30.61v-58.4c141-.15,279.17-35.5,420.32-37.21,126.33-1.53,255.09,1.44,379.72,23.9,56.15,10.12,105.06,29.8,155.54,56,53,27.54,107,58.5,167.07,67.12,55.78,8,115.78,2.2,172.05,2.2H1743C1732.59,1491.89,1719.67,1502.15,1706.56,1511.48Z"/><path class="cls-2" d="M1652.88,1547.05H1465.07c-56.47,0-113.87,3-170.23-.85-54.46-3.75-107-19.31-159.45-33.5-49.94-13.53-99-23.09-150.53-27.72-113-10.15-226.83-10.9-340.16-8.76-128.48,2.42-255.8,22.46-384.23,24.17V1442c134.23-.8,266.72-27.33,401-29.21,119.34-1.66,239.89.31,358.36,16,51.63,6.84,99.56,20,148.14,38.52,54.63,20.8,109.5,44.36,168.21,50.49,54.27,5.67,110.89,1.49,165.39,1.49h193.51C1681.09,1528.61,1666.76,1537.5,1652.88,1547.05Z"/><path class="cls-2" d="M1607.61,1588.72c-118.92,0-238.27,2.91-357.16-.18-102-2.66-202.45-23.9-304.5-27.68-106.47-3.94-213.09-3.5-319.6-1.45-122.1,2.35-243.8,13.48-365.88,15.49v-58.4c127.84-1.91,254.74-20.21,382.63-22.69,110.77-2.14,221.94-1.65,332.45,7,103.79,8.07,202,46.7,305.59,53.48,56.73,3.72,114.5.86,171.33.86h189.29A162.47,162.47,0,0,0,1607.61,1588.72Z"/><path class="cls-2" d="M1588.56,1649.42H260.47V1591c122-1.84,243.75-10.86,365.77-12.93,104.37-1.77,208.81-2.27,313.18.55,100.8,2.73,200.64,18.83,301.38,21,119.84,2.59,240,.15,359.86.15C1592,1615.18,1589.46,1632,1588.56,1649.42Z"/></g></g></g></svg>