<svg xmlns="http://www.w3.org/2000/svg" viewBox="0 0 809.66 809.66"><title>Template-Image-Circle</title><g id="Layer_2" data-name="Layer 2"><g id="Icons"><g id="TemplateImageCircle"><rect class="cls-2" width="809.66" height="809.66" rx="404.83"/><path class="cls-1" d="M662.43,467.1,585.72,366.54a13.36,13.36,0,0,1,2.53-18.74l11.35-8.66a13.37,13.37,0,0,1,18.74,2.52l76.71,100.56A13.37,13.37,0,0,1,692.53,461l-11.36,8.66A13.37,13.37,0,0,1,662.43,467.1Z"/><path class="cls-1" d="M695,399.76l-52.59-68.95A9.16,9.16,0,0,1,644.15,318l7.78-5.94a9.16,9.16,0,0,1,12.85,1.73l52.59,68.95a9.16,9.16,0,0,1-1.73,12.85l-7.78,5.94A9.17,9.17,0,0,1,695,399.76Z"/><path class="cls-3" d="M90.41,485.73V363.44a13.36,13.36,0,0,1,13.37-13.37h28.49V485.73A13.38,13.38,0,0,1,118.9,499.1H103.78A13.37,13.37,0,0,1,90.41,485.73Z"/><path class="cls-3" d="M124.32,446.77V416.63h27a20,20,0,0,0,8.89-2,15.72,15.72,0,0,0,6.6-6.07,21.78,21.78,0,0,0,0-20.3,15.72,15.72,0,0,0-6.6-6.07,20,20,0,0,0-8.89-2h-27V350.07h35.16a58,58,0,0,1,26.06,5.75A44.86,44.86,0,0,1,204,372.36q6.79,10.78,6.8,26.06,0,15.07-6.8,25.95A44.55,44.55,0,0,1,185.54,441a57.85,57.85,0,0,1-26.06,5.76Z"/><path class="cls-3" d="M273.35,499.52q-15.08,0-26.69-5.86a45.68,45.68,0,0,1-18.31-16.33,43.27,43.27,0,0,1-6.7-23.86V407.39A13.37,13.37,0,0,1,235,394H249.3a13.37,13.37,0,0,1,13.37,13.37v46.5a11.77,11.77,0,0,0,1.36,5.65,9.62,9.62,0,0,0,3.77,3.87,11.05,11.05,0,0,0,5.55,1.36,10.11,10.11,0,0,0,7.43-3,10.63,10.63,0,0,0,3-7.85v-46.5A13.38,13.38,0,0,1,297.19,394h14.28a13.38,13.38,0,0,1,13.37,13.37v46.08a43.74,43.74,0,0,1-6.59,24A45.33,45.33,0,0,1,300,493.66Q288.42,499.51,273.35,499.52Z"/><path class="cls-3" d="M341.79,485.73V359.25a13.38,13.38,0,0,1,13.38-13.37h14.28a13.38,13.38,0,0,1,13.37,13.37V485.73a13.38,13.38,0,0,1-13.37,13.37H355.17A13.38,13.38,0,0,1,341.79,485.73Z"/><path class="cls-3" d="M443.52,499.1a76.24,76.24,0,0,1-19.26-2.51,82.33,82.33,0,0,1-17.89-6.91l-.17-.09A13.21,13.21,0,0,1,403,468.74l2.86-2.94a13.44,13.44,0,0,1,16.17-2.32,41.78,41.78,0,0,0,4,1.92,37.78,37.78,0,0,0,14.76,2.93,13.24,13.24,0,0,0,5.55-.94,2.9,2.9,0,0,0,2-2.62c0-1.95-1.15-3.42-3.45-4.39a55.25,55.25,0,0,0-8.79-2.73q-5.34-1.25-11.3-3.24A51.64,51.64,0,0,1,413.38,449a25.47,25.47,0,0,1-8.79-9.63q-3.36-6.16-3.35-15.8a29,29,0,0,1,5.54-17.48,37.77,37.77,0,0,1,15.7-12.14q10.15-4.5,23.55-4.5a77.22,77.22,0,0,1,26.38,4.6,53.55,53.55,0,0,1,6.74,3,13.38,13.38,0,0,1,3.39,21.24l-3.24,3.3a13.47,13.47,0,0,1-16.05,2.29,21.57,21.57,0,0,0-3.82-1.62,36,36,0,0,0-10.47-2q-4,0-5.54,1.15a3.4,3.4,0,0,0-1.57,2.82q0,2.31,3.34,3.77a51,51,0,0,0,8.69,2.72,106.75,106.75,0,0,1,11.2,3.35,46.88,46.88,0,0,1,11.2,5.86,28.58,28.58,0,0,1,8.68,9.95q3.36,6.17,3.35,16,0,15.29-12.14,24.28T443.52,499.1Z"/><path class="cls-3" d="M557.6,499.26q-18,0-31.61-6.8a51.65,51.65,0,0,1-21.25-19q-7.64-12.24-7.64-28.15a52.26,52.26,0,0,1,7.43-27.84,52.89,52.89,0,0,1,20.41-19.15,60.59,60.59,0,0,1,29.31-7q16.11,0,28.46,6.6a49,49,0,0,1,19.37,18.31,51.25,51.25,0,0,1,7,26.8q0,3.14-.32,6.59,0,.56-.12,1.14a7.9,7.9,0,0,1-7.78,7l-86.39.59V433.12l77.65-.63-19,11.09a40,40,0,0,0-2-13.71,16.36,16.36,0,0,0-6-8.06,17.43,17.43,0,0,0-10-2.72,18.87,18.87,0,0,0-10.88,3.14,19.55,19.55,0,0,0-7,9,37.42,37.42,0,0,0-2.41,14.24q0,8.58,2.62,14.34a18.64,18.64,0,0,0,7.64,8.68q5,2.94,12.56,2.93a32.19,32.19,0,0,0,12.87-2.4,26.09,26.09,0,0,0,5.31-3.12,7.84,7.84,0,0,1,10.19.77l9.41,9.31a7.88,7.88,0,0,1-.58,11.74,49.18,49.18,0,0,1-12.3,7.15A66.07,66.07,0,0,1,557.6,499.26Z"/><path d="M264,612.34v-1.92h22.08v1.92Zm10,25.36V611.18h2.12V637.7Z"/><path d="M293.53,638.1a9.72,9.72,0,0,1-5-1.28,9.52,9.52,0,0,1-3.48-3.48,9.7,9.7,0,0,1-1.28-5,9.9,9.9,0,0,1,1.24-4.94,9.38,9.38,0,0,1,3.42-3.46,9.49,9.49,0,0,1,4.86-1.28,8.73,8.73,0,0,1,4.48,1.14,8,8,0,0,1,3.06,3.14,9.42,9.42,0,0,1,1.1,4.64,5.27,5.27,0,0,1,0,.62q0,.39-.12.9H285.21v-1.76h15.4l-.68.56a8,8,0,0,0-.72-3.86,6,6,0,0,0-2.32-2.58,6.9,6.9,0,0,0-3.64-.92,7.61,7.61,0,0,0-3.88,1,7,7,0,0,0-2.62,2.7,8.29,8.29,0,0,0-.94,4,8.55,8.55,0,0,0,1,4.18,6.93,6.93,0,0,0,2.74,2.76,9,9,0,0,0,7.46.32,6.44,6.44,0,0,0,2.58-2l1.36,1.32a9.1,9.1,0,0,1-3.24,2.38A9.93,9.93,0,0,1,293.53,638.1Z"/><path d="M306.57,637.7V619.1h2v18.6Zm13,0V626.14a5.51,5.51,0,0,0-1.5-4,5.15,5.15,0,0,0-3.82-1.52,6,6,0,0,0-2.84.68,5.5,5.5,0,0,0-2.06,1.92,5.38,5.38,0,0,0-.78,2.92l-1-.28a7.26,7.26,0,0,1,.94-3.76,6.63,6.63,0,0,1,2.56-2.48,7.54,7.54,0,0,1,3.62-.88,7.2,7.2,0,0,1,3.56.88,6.56,6.56,0,0,1,2.48,2.48,7.46,7.46,0,0,1,.92,3.76V637.7Zm13,0V626.14a5.51,5.51,0,0,0-1.5-4,5.15,5.15,0,0,0-3.82-1.52,6.13,6.13,0,0,0-2.86.68,5.36,5.36,0,0,0-2.06,1.92,5.45,5.45,0,0,0-.76,2.92l-1.24-.28a7.39,7.39,0,0,1,1-3.78,6.88,6.88,0,0,1,2.62-2.46,7.68,7.68,0,0,1,3.64-.88,7.2,7.2,0,0,1,3.56.88,6.6,6.6,0,0,1,2.5,2.5,7.36,7.36,0,0,1,.94,3.78V637.7Z"/><path d="M340.29,645.58V619.1h2v4.64l-.48,4.52.48,4.56v12.76Zm9.44-7.48a8.66,8.66,0,0,1-3.82-.84,7.9,7.9,0,0,1-4.42-5.84v-6.08A7.78,7.78,0,0,1,343,621.8a7.91,7.91,0,0,1,2.92-2.3,9,9,0,0,1,3.78-.8,8.86,8.86,0,0,1,4.72,1.28,9.22,9.22,0,0,1,3.28,3.48,10.2,10.2,0,0,1,1.2,5,10.06,10.06,0,0,1-1.2,4.94,9.1,9.1,0,0,1-3.28,3.46A8.77,8.77,0,0,1,349.73,638.1Zm-.36-1.92a7.4,7.4,0,0,0,3.88-1,6.9,6.9,0,0,0,2.62-2.76,8.4,8.4,0,0,0,.94-4,8.29,8.29,0,0,0-.94-4,7.07,7.07,0,0,0-2.6-2.74,7.33,7.33,0,0,0-3.82-1,6.86,6.86,0,0,0-6.28,3.74,9.42,9.42,0,0,0,0,8.08,6.8,6.8,0,0,0,6.22,3.74Z"/><path d="M363.77,637.7V609.62h2V637.7Z"/><path d="M380.05,638.1a9.12,9.12,0,0,1-4.84-1.28,9.38,9.38,0,0,1-3.36-3.46,10.42,10.42,0,0,1,0-9.86,9.64,9.64,0,0,1,3.36-3.5,9,9,0,0,1,4.76-1.3,8.86,8.86,0,0,1,3.86.82,7.58,7.58,0,0,1,2.8,2.3,7.85,7.85,0,0,1,1.42,3.52v6.08a8.38,8.38,0,0,1-1.46,3.54,7.36,7.36,0,0,1-2.78,2.32A8.4,8.4,0,0,1,380.05,638.1Zm.28-1.92a6.48,6.48,0,0,0,5.1-2.14,8.12,8.12,0,0,0,1.9-5.62,9,9,0,0,0-.88-4.08A6.74,6.74,0,0,0,384,621.6a6.9,6.9,0,0,0-3.7-1,7.59,7.59,0,0,0-3.9,1,7.25,7.25,0,0,0-2.68,2.76,8.73,8.73,0,0,0,0,8,7,7,0,0,0,2.7,2.76A7.62,7.62,0,0,0,380.33,636.18Zm6.92,1.52v-5l.44-4.56-.44-4.52V619.1h2v18.6Z"/><path d="M393.09,620.9v-1.8h11.64v1.8Zm4.8,16.8V611.22h2V637.7Z"/><path d="M416.69,638.1a9.69,9.69,0,0,1-5-1.28,9.37,9.37,0,0,1-3.48-3.48,9.7,9.7,0,0,1-1.28-5,9.8,9.8,0,0,1,1.24-4.94,9.38,9.38,0,0,1,8.28-4.74,8.75,8.75,0,0,1,4.48,1.14A8,8,0,0,1,424,623a9.53,9.53,0,0,1,1.1,4.64,5.27,5.27,0,0,1,0,.62q0,.39-.12.9H408.37v-1.76h15.4l-.68.56a8.2,8.2,0,0,0-.72-3.86,6,6,0,0,0-2.32-2.58,6.93,6.93,0,0,0-3.64-.92,7.58,7.58,0,0,0-3.88,1,7,7,0,0,0-2.62,2.7,8.18,8.18,0,0,0-.94,4,8.55,8.55,0,0,0,1,4.18,6.87,6.87,0,0,0,2.74,2.76,8.26,8.26,0,0,0,4.12,1,8.4,8.4,0,0,0,3.34-.66,6.44,6.44,0,0,0,2.58-2l1.36,1.32a9.1,9.1,0,0,1-3.24,2.38A10,10,0,0,1,416.69,638.1Z"/><path d="M439.33,637.7V610.42h2.12V637.7Z"/><path d="M448.17,637.7V619.1h2v18.6Zm13,0V626.14a5.51,5.51,0,0,0-1.5-4,5.15,5.15,0,0,0-3.82-1.52,6,6,0,0,0-2.84.68,5.5,5.5,0,0,0-2.06,1.92,5.38,5.38,0,0,0-.78,2.92l-1-.28a7.26,7.26,0,0,1,.94-3.76,6.63,6.63,0,0,1,2.56-2.48,7.54,7.54,0,0,1,3.62-.88,7.2,7.2,0,0,1,3.56.88,6.63,6.63,0,0,1,2.48,2.48,7.46,7.46,0,0,1,.92,3.76V637.7Zm13,0V626.14a5.51,5.51,0,0,0-1.5-4,5.15,5.15,0,0,0-3.82-1.52,6.13,6.13,0,0,0-2.86.68,5.29,5.29,0,0,0-2.06,1.92,5.45,5.45,0,0,0-.76,2.92l-1.24-.28a7.39,7.39,0,0,1,1-3.78,6.88,6.88,0,0,1,2.62-2.46,7.65,7.65,0,0,1,3.64-.88,7.2,7.2,0,0,1,3.56.88,6.67,6.67,0,0,1,2.5,2.5,7.36,7.36,0,0,1,.94,3.78V637.7Z"/><path d="M490.13,638.1a9.09,9.09,0,0,1-4.84-1.28,9.3,9.3,0,0,1-3.36-3.46,10.42,10.42,0,0,1,0-9.86,9.56,9.56,0,0,1,3.36-3.5,9.42,9.42,0,0,1,8.62-.48,7.66,7.66,0,0,1,2.8,2.3,7.85,7.85,0,0,1,1.42,3.52v6.08a8.38,8.38,0,0,1-1.46,3.54,7.44,7.44,0,0,1-2.78,2.32A8.43,8.43,0,0,1,490.13,638.1Zm.28-1.92a6.48,6.48,0,0,0,5.1-2.14,8.17,8.17,0,0,0,1.9-5.62,9,9,0,0,0-.88-4.08,6.74,6.74,0,0,0-2.46-2.74,6.93,6.93,0,0,0-3.7-1,7.59,7.59,0,0,0-3.9,1,7.18,7.18,0,0,0-2.68,2.76,8.73,8.73,0,0,0,0,8,7,7,0,0,0,2.7,2.76A7.6,7.6,0,0,0,490.41,636.18Zm6.92,1.52v-5l.44-4.56-.44-4.52V619.1h2v18.6Z"/><path d="M513.45,637.58a9.2,9.2,0,0,1-4.74-1.22,8.73,8.73,0,0,1-3.3-3.36,10.44,10.44,0,0,1,0-9.68,8.8,8.8,0,0,1,3.28-3.38,9.6,9.6,0,0,1,8.6-.42,7.69,7.69,0,0,1,2.86,2.3,8.15,8.15,0,0,1,1.48,3.52V631a8,8,0,0,1-1.5,3.5,7.56,7.56,0,0,1-2.84,2.3A8.8,8.8,0,0,1,513.45,637.58Zm-.4,8.4a11.51,11.51,0,0,1-4.94-1,8.77,8.77,0,0,1-3.54-2.94l1.32-1.28a7.51,7.51,0,0,0,2.92,2.42,9.6,9.6,0,0,0,4.28.9,8,8,0,0,0,5.6-1.92,6.7,6.7,0,0,0,2.08-5.16V632.3l.48-4.32-.48-4.2V619.1h2V637a9,9,0,0,1-1.22,4.74,8.31,8.31,0,0,1-3.42,3.14A11.13,11.13,0,0,1,513.05,646Zm.72-10.28a7.19,7.19,0,0,0,3.72-.94,6.5,6.5,0,0,0,2.5-2.64,8.38,8.38,0,0,0,.9-4,8.19,8.19,0,0,0-.9-3.92,6.67,6.67,0,0,0-2.52-2.64,7.2,7.2,0,0,0-3.74-1,7.6,7.6,0,0,0-3.84,1,7,7,0,0,0-2.64,2.64,7.7,7.7,0,0,0-1,3.88,7.88,7.88,0,0,0,1,3.92,6.9,6.9,0,0,0,2.66,2.7A7.51,7.51,0,0,0,513.77,635.7Z"/><path d="M537.33,638.1a9.67,9.67,0,0,1-5-1.28,9.37,9.37,0,0,1-3.48-3.48,9.6,9.6,0,0,1-1.28-5,9.8,9.8,0,0,1,1.24-4.94,9.23,9.23,0,0,1,3.42-3.46,9.43,9.43,0,0,1,4.86-1.28,8.75,8.75,0,0,1,4.48,1.14,8.17,8.17,0,0,1,3.06,3.14,9.53,9.53,0,0,1,1.1,4.64c0,.16,0,.37,0,.62s-.07.56-.12.9H529v-1.76h15.4l-.68.56a8.2,8.2,0,0,0-.72-3.86,6.11,6.11,0,0,0-2.32-2.58,7,7,0,0,0-3.64-.92,7.58,7.58,0,0,0-3.88,1,6.94,6.94,0,0,0-2.62,2.7,8.18,8.18,0,0,0-.94,4,8.44,8.44,0,0,0,1,4.18,6.81,6.81,0,0,0,2.74,2.76,8.24,8.24,0,0,0,4.12,1,8.4,8.4,0,0,0,3.34-.66,6.58,6.58,0,0,0,2.58-2l1.36,1.32a9.1,9.1,0,0,1-3.24,2.38A10,10,0,0,1,537.33,638.1Z"/></g></g></g></svg>